.
 
http://www.scenetime.com    -   SceneTime [ We been having it ] !!!


How come you press harder on a remote control when you know the battery is dead? so you better seed to get speed ;)

        Seed back for speed


...................................NFO:.................................................::::::::::::::Enjoy:Another:Release:From:TDP::::::::::::::

[IMG]http://lookpic.com/c1/i2/679/wfbAjr5g.jpeg[/IMG]

TiTLE.........: The.Dragon.Pearl.2011.R5.XviD.AC3-TDP
RUNTiME.......: 1h 30mn
FORMAT........: XviD
RAR COUNT.....: 101x15MB
SOURCE .......: R5 DVD9
GENRE.........: Adventure | Family | Mystery 
AUDIO.........: English 
SUBTITLES.....: HC English for none english parts
SAMPEL........: YES
RELEASE DATE..: 10-07-2011

IMDB : http://www.imdb.com/title/tt1708534/

Plot :
A young boy travels to China to visit his father on a dig, and with the help of a new Chinese 
friend, discovers a real-life, but benevolent dragon. 



General

Complete name                    : The.Dragon.Pearl.2011.R5.XviD.AC3-TDP
Format                           : AVI
Format/Info                      : Audio Video Interleave
Format profile                   : OpenDML
File size                        : 1.41 GiB
Duration                         : 1h 30mn
Overall bit rate                 : 2 223 Kbps
Writing application              : MEncoder version 4.0.0 building on 20100917


Video

Format                           : MPEG-4 Visual
Format profile                   : Simple@L1
Format settings, BVOP            : No
Format settings, QPel            : No
Format settings, GMC             : No warppoints
Format settings, Matrix          : Default (H.263)
Codec ID                         : DX50
Codec ID/Hint                    : DivX 5
Duration                         : 1h 30mn
Bit rate                         : 1 769 Kbps
Width                            : 720 pixels
Height                           : 404 pixels
Display aspect ratio             : 16:9
Frame rate                       : 25.000 fps
Color space                      : YUV
Chroma subsampling               : 4:2:0
Bit depth                        : 8 bits
Scan type                        : Progressive
Compression mode                 : Lossy
Bits/(Pixel*Frame)               : 0.243
Stream size                      : 1.12 GiB (80%)
Writing library                  : DigiArty AV Encoder Core

Audio

Format                           : AC-3
Format/Info                      : Audio Coding 3
Mode extension                   : CM (complete main)
Codec ID                         : 2000
Duration                         : 1h 30mn
Bit rate mode                    : Constant
Bit rate                         : 448 Kbps
Channel(s)                       : 6 channels
Channel positions                : Front: L C R, Side: L R, LFE
Sampling rate                    : 48.0 KHz
Bit depth                        : 16 bits
Compression mode                 : Lossy
Stream size                      : 291 MiB (20%)
Alignment                        : Split accross interleaves
Interleave, duration             : 500 ms (12.50 video frames)
Interleave, preload duration     : 500 ms


GREETS:

IMAGiNE,FLAWL3SS,ViSiON,FUSiON,Rx,CM8,SecretMyth,BirdFlu,ELEKTRI4KA,Serenity,INK,SUBLIME
And to all the other p2p grps past and present

Looking for : SYNCERS, CAMMERS, SEED/RiPBOXES for group use
CAPPERS, SiLVER SUPPLiERS, and R1-R2-R4 PRE-RETAiL SOURCE SUPPLIERS!
Always looking for CAM+LiNE+SCR+DVDSCR+BRSCR+RUS DVD+PRERETAIL BR & DVD
If you'd like to help, feel free to contact us at thedanishpirates@gmail.com